# xmcd CD database file
#
# Track frame offsets:
#	150
#	15437
#	30418
#	46385
#	63539
#	87584
#	98020
#	112349
#	126488
#	145880
#	166502
#	185361
#
# Disc length: 2768 seconds
#
# Revision: 0
# Processed by: cddbd v1.5.1PL0 Copyright (c) Steve Scherf et al.
# Submitted via: CDex 1.51
#
DISCID=9e0ace0c
DTITLE=Charlie Parker - Big Bird Bebop (1|2)
DYEAR=1900
DGENRE=Jazz
TTITLE0=Charlie Parker - Fine And Dandy
TTITLE1=Charlie Parker - These Foolish Things
TTITLE2=Charlie Parker - Light Green
TTITLE3=Charlie Parker - Thou Swell
TTITLE4=Charlie Parker - Willis
TTITLE5=Charlie Parker - Don't Blame Me
TTITLE6=Charlie Parker - Something To Remember You By - Blue Room
TTITLE7=Charlie Parker - Roundhouse
TTITLE8=Charlie Parker - Ornithology
TTITLE9=Charlie Parker - Out Of Nowhere
TTITLE10=Charlie Parker - Cool Blues
TTITLE11=Charlie Parker - Anthropology
EXTD=
EXTT0=
EXTT1=
EXTT2=
EXTT3=
EXTT4=
EXTT5=
EXTT6=
EXTT7=
EXTT8=
EXTT9=
EXTT10=
EXTT11=
PLAYORDER=
